<svg id="Capa_1" enable-background="new 0 0 512 512" height="512" viewBox="0 0 512 512" width="512" xmlns="http://www.w3.org/2000/svg"><g><path d="m512 256c0 108.73-67.79 201.63-163.41 238.74h-185.18c-95.62-37.11-163.41-130.01-163.41-238.74 0-46.22 12.25-89.57 33.68-127 44.12-77.07 127.16-129 222.32-129s178.2 51.93 222.32 129c21.43 37.43 33.68 80.78 33.68 127z" fill="#bf77f2"/><path d="m512 256c0 108.73-67.79 201.63-163.41 238.74h-185.18c-95.62-37.11-163.41-130.01-163.41-238.74 0-46.22 12.25-89.57 33.68-127 28.98 50.63 74.76 90.41 129.73 111.73 14.81 5.76 30.3 10.17 46.3 13.09 15.01 2.75 30.48 4.18 46.29 4.18 32.65 0 63.87-6.11 92.59-17.26 54.97-21.34 100.75-61.11 129.73-111.74 21.43 37.43 33.68 80.78 33.68 127z" fill="#a253db"/><g><g><g><path d="m286.59 69.946v110.493h-61.18v-110.493c0-2.602 2.109-4.711 4.711-4.711h51.758c2.602.001 4.711 2.11 4.711 4.711z" fill="#20d7fe"/><path d="m286.588 69.945v110.497h-30.586v-115.204h25.879c2.6 0 4.707 2.106 4.707 4.707z" fill="#00b3ff"/><path d="m311.467 164.428v71.324h-110.934v-71.324c0-4.72 3.822-8.542 8.542-8.542h93.851c4.72 0 8.541 3.821 8.541 8.542z" fill="#20d7fe"/><path d="m311.467 164.428v71.324h-83.198v-71.324c0-4.72 3.821-8.542 8.542-8.542h66.115c4.72 0 8.541 3.821 8.541 8.542z" fill="#00b3ff"/><path d="m311.467 164.423v71.333h-55.462v-79.875h46.921c4.717.001 8.541 3.825 8.541 8.542z" fill="#00a4ff"/><g><path d="m348.59 219.16v275.58c-28.71 11.15-59.94 17.26-92.59 17.26-15.81 0-31.28-1.43-46.29-4.18-16-2.92-31.49-7.33-46.3-13.08v-275.58c0-12.89 10.46-23.34 23.34-23.34h138.5c12.89 0 23.34 10.45 23.34 23.34z" fill="#fff"/><path d="m348.59 219.16v275.58c-28.71 11.15-59.94 17.26-92.59 17.26-15.81 0-31.28-1.43-46.29-4.18v-288.66c0-12.89 10.46-23.34 23.34-23.34h92.2c12.89 0 23.34 10.45 23.34 23.34z" fill="#cff6ff"/><path d="m348.59 219.16v275.58c-28.71 11.15-59.94 17.26-92.59 17.26v-316.18h69.25c12.89 0 23.34 10.45 23.34 23.34z" fill="#b0edf7"/></g><g><path d="m302.29 293.671v30.864h-30.863v30.853h-30.853v-30.853h-30.864v-30.864h30.864v-30.864h30.853v30.864z" fill="#de1263"/></g><path d="m302.29 293.671v30.864h-30.863v30.853h-15.422v-92.581h15.422v30.864z" fill="#a30856"/></g><path d="m286.588 79.619v41.321c-11.411 0-20.66-9.25-20.66-20.66-.001-11.411 9.249-20.661 20.66-20.661z" fill="#00a4ff"/><path d="m286.588 91.295v17.97c-4.962 0-8.985-4.023-8.985-8.985 0-4.963 4.022-8.985 8.985-8.985z" fill="#303c5a"/></g><g fill="#fff"><circle cx="337.259" cy="122.986" r="6.579"/><ellipse cx="337.259" cy="80.927" rx="6.579" ry="6.579" transform="matrix(.925 -.38 .38 .925 -5.479 134.063)"/><ellipse cx="370.886" cy="109.827" rx="6.579" ry="6.579" transform="matrix(.987 -.162 .162 .987 -12.872 61.368)"/><ellipse cx="410.361" cy="80.927" rx="6.579" ry="6.579" transform="matrix(.096 -.995 .995 .096 290.435 481.63)"/><ellipse cx="370.886" cy="76.929" rx="6.579" ry="6.579" transform="matrix(.376 -.926 .926 .376 159.998 391.573)"/><circle cx="403.782" cy="122.986" r="6.579"/><circle cx="311.803" cy="100.665" r="6.579"/><circle cx="377.465" cy="149.302" r="6.579"/></g></g><path d="m512 256c0 141.38-114.62 256-256 256s-256-114.62-256-256c0-46.22 12.25-89.57 33.68-127 44.12-77.07 127.16-129 222.32-129s178.2 51.93 222.32 129c21.43 37.43 33.68 80.78 33.68 127z" fill="none"/></g></svg>